PathFileType	4	(X/Y/Z)	D:\Documents\my_script\MATLAB\opensim\convert_file_format\tsv_to_trc\CE_8km_M.tsv
DataRate	CameraRate	NumFrames	NumMarkers	Units	OrigDataRate	OrigDataStartFrame	OrigNumFrames
200	200	18	23	mm	200	3299	200
Frame#	Time	Top.Head			L.Acromium			R.Acromium			Sternum			L.ASIS			R.ASIS			V.Sacral			L.Knee.Lat			L.Knee.Med			L.Ankle.Lat			L.Ankle.Med			L.Heel			L.Toe.Lat			L.Toe.Med			L.Toe.Tip			R.Knee.Lat			R.Knee.Med			R.Ankle.Lat			R.Ankle.Med			R.Heel			R.Toe.Lat			R.Toe.Med			R.Toe.Tip		
		X1	Y1	Z1	X2	Y2	Z2	X3	Y3	Z3	X4	Y4	Z4	X5	Y5	Z5	X6	Y6	Z6	X7	Y7	Z7	X8	Y8	Z8	X9	Y9	Z9	X10	Y10	Z10	X11	Y11	Z11	X12	Y12	Z12	X13	Y13	Z13	X14	Y14	Z14	X15	Y15	Z15	X16	Y16	Z16	X17	Y17	Z17	X18	Y18	Z18	X19	Y19	Z19	X20	Y20	Z20	X21	Y21	Z21	X22	Y22	Z22	X23	Y23	Z23
3499	17.49	53.859	1697.437	332.052	228.915	1407.822	240.303	-133.741	1410.372	372.061	88.061	1359.329	396.852	196.192	917.396	322.248	-86.551	908.213	346.856	36.574	965.745	153.901	192.796	470.458	387.065	64.422	436.858	397.972	143.346	99.1	335.035	54.953	100.324	371.171	90.608	37.874	253.155	182.098	48.17	435.32	73.016	52.181	481.524	129.522	66.504	530.927	-128.303	456.858	182.851	14.363	421.107	172.695	-80.292	244.271	-154.698	0.841	213.558	-108.921	-2.05	301.307	-213.888	-110.334	107.048	-187.397	-8.654	85.912	-156.84	-65.2	53.43	-137.038
3500	17.495	54.617	1694.106	331.602	231.381	1403.281	240.058	-132.448	1406.35	370.001	88.719	1355.123	396.998	197.259	915.081	321.5	-86.498	904.61	346.279	36.79	961.363	152.703	192.192	470.11	393.544	64.274	436.556	401.25	144.753	100.026	326.556	56.056	101.491	362.321	91.248	38.945	243.105	182.57	47.992	425.5	73.33	51.075	472.147	129.73	64.21	521.693	-129.665	452.893	188.784	14.65	416.538	177.671	-79.951	246.303	-152.759	0.764	215.054	-107.594	-2.519	303.993	-211.718	-110.941	109.657	-186.613	-9.166	88.026	-156.71	-65.671	55.441	-136.97
3501	17.5	55.267	1691.011	331.177	233.88	1398.858	239.901	-131.142	1402.305	367.986	89.254	1350.995	397.15	198.503	912.889	320.647	-86.503	901.079	345.562	36.753	957.189	151.575	191.279	469.997	400.327	64.067	436.839	404.683	146.444	100.688	318.299	57.476	102.7	353.729	91.946	39.997	233.084	183.131	47.814	415.628	73.816	50.139	462.704	130.136	62.14	512.364	-130.154	448.861	194.163	14.983	412.362	182.939	-79.257	247.924	-150.149	0.75	216.56	-105.757	-3.244	306.447	-209.168	-111.592	112.003	-184.82	-9.642	90.03	-155.868	-66.011	57.324	-135.964
3502	17.505	55.85	1688.023	330.749	236.413	1394.592	239.885	-129.821	1398.254	365.964	89.659	1347.072	397.272	199.828	910.745	319.793	-86.58	897.753	344.695	36.572	953.24	150.546	190.334	469.794	406.422	63.94	437.4	407.869	148.089	101.189	309.971	58.848	103.721	345.063	92.613	40.97	223.042	183.711	47.609	405.693	74.332	49.247	453.135	130.559	60.245	502.9	-131.323	445.224	200.631	15.354	408.594	188.409	-78.486	249.123	-146.823	0.806	218.003	-103.433	-4.225	308.654	-206.244	-112.268	114.049	-182.052	-10.043	91.867	-154.316	-66.201	59.031	-134.053
3503	17.51	56.362	1685.166	330.365	238.812	1390.534	239.989	-128.564	1394.291	363.985	89.881	1343.413	397.303	201.17	908.584	319.001	-86.792	894.683	343.694	36.4	949.642	149.628	189.781	469.099	410.897	64.123	437.725	410.139	149.558	101.584	301.36	60.058	104.584	336.158	93.149	41.792	212.914	184.185	47.463	395.625	74.804	48.47	443.409	130.946	58.656	493.217	-130.311	442.311	203.788	15.748	405.216	194.062	-77.733	250.048	-142.874	0.906	219.367	-100.621	-5.408	310.588	-202.941	-112.957	115.779	-178.363	-10.382	93.502	-152.076	-66.259	60.541	-131.265
3504	17.515	56.825	1682.42	330.015	240.915	1386.703	240.237	-127.33	1390.459	362.301	90.067	1340.126	397.235	202.394	906.319	318.293	-87.151	891.892	342.555	36.464	946.409	148.779	189.615	467.592	413.131	64.605	437.226	411.111	150.843	101.955	292.378	61.072	105.242	326.866	93.534	42.463	202.678	184.563	47.372	385.359	75.192	47.755	433.426	131.256	57.417	483.235	-129.284	439.392	207.206	16.137	402.086	199.869	-78.16	251.249	-138.372	1.042	220.6	-97.319	-6.704	312.197	-199.275	-113.64	117.168	-173.812	-10.677	94.917	-149.139	-66.184	61.82	-127.622
3505	17.52	57.202	1679.894	329.759	242.683	1383.209	240.617	-126.261	1386.99	360.684	90.177	1337.251	397.047	203.433	903.876	317.711	-87.036	889.352	341.364	36.889	943.615	147.967	190.095	465.121	412.824	65.293	435.592	410.655	151.042	102.144	282.808	61.206	105.572	317.519	93.756	43.027	192.36	184.885	47.294	374.97	75.546	47.076	423.325	131.55	56.343	473.097	-128.927	435.587	213.546	16.503	399.109	206.043	-78.564	252.169	-133.348	1.195	221.699	-93.504	-8.058	313.461	-195.228	-114.293	118.231	-168.477	-11.023	96.06	-145.516	-66.105	62.875	-123.184
3506	17.525	57.528	1677.5	329.549	244.048	1380.106	241.118	-125.339	1383.854	359.204	90.248	1334.769	396.756	204.245	901.352	317.318	-87.019	887.223	340.009	37.697	941.232	147.143	191.197	461.7	410.084	66.097	432.744	408.76	150.914	102.397	272.897	61.071	105.868	307.99	93.643	43.546	181.963	185.145	47.23	364.442	75.862	46.44	413.103	131.819	55.381	462.827	-129.481	432.288	220.872	16.868	396.251	212.372	-78.975	252.841	-127.896	1.351	222.604	-89.172	-9.401	314.342	-190.837	-114.926	118.982	-162.433	-11.341	96.935	-141.12	-66.014	63.705	-117.919
3507	17.53	57.802	1675.349	329.392	245.078	1377.405	241.729	-124.557	1381.067	357.827	90.261	1332.601	396.408	204.866	898.795	317.163	-87.096	885.533	338.495	38.93	939.253	146.273	192.598	457.484	405.371	66.797	428.712	405.997	150.633	102.651	262.857	60.792	106.119	298.362	93.559	44.025	171.476	185.338	47.175	353.79	76.127	45.839	402.755	132.056	54.514	452.409	-129.348	429.021	227.467	17.252	393.507	218.883	-79.328	253.237	-122.076	1.479	223.344	-84.31	-10.635	314.808	-186.141	-115.53	119.424	-155.736	-11.686	97.51	-135.934	-65.957	64.293	-111.836
3508	17.535	58.092	1673.447	329.231	245.885	1375.139	242.448	-124.416	1379.202	356.174	89.124	1331.115	396.416	205.236	896.327	317.287	-87.241	884.251	336.835	40.447	937.695	145.402	194.023	452.782	399.255	67.44	424.137	402.309	150.329	102.91	252.68	60.481	106.342	288.574	93.455	44.477	160.886	185.517	47.145	343.016	76.37	45.286	392.267	132.261	53.758	441.854	-129.333	425.809	234.185	17.643	390.9	225.519	-79.616	253.382	-115.937	1.607	223.848	-78.956	-11.713	314.799	-181.196	-116.095	119.539	-148.441	-12.031	97.774	-129.922	-65.943	64.652	-104.932
3509	17.54	58.307	1671.859	329.119	246.586	1373.309	243.265	-124.373	1377.644	354.465	87.866	1329.881	396.444	205.394	894.056	317.661	-87.454	883.271	335.072	42.13	936.504	144.536	195.182	447.899	392.202	68.008	419.356	397.974	150.077	103.138	242.326	60.221	106.574	278.604	93.402	44.931	150.197	185.729	47.093	332.154	76.633	44.797	381.649	132.485	53.078	431.179	-127.773	422.613	240.884	18.053	388.443	232.298	-79.828	253.215	-109.524	1.726	224.13	-73.123	-12.622	314.318	-176.024	-116.618	119.338	-140.555	-12.413	97.697	-123.114	-66.017	64.794	-97.226
3510	17.545	58.53	1670.522	328.959	247.351	1371.862	244.202	-124.393	1376.415	352.551	86.414	1328.945	396.536	205.326	892.14	318.196	-87.733	882.495	333.25	43.907	935.591	143.661	196.053	443.166	384.726	68.344	414.772	394.306	149.904	103.4	231.851	60.04	106.89	268.51	93.421	45.404	139.411	185.988	46.994	321.205	76.938	44.395	370.89	132.726	52.433	420.407	-125.426	419.608	246.779	18.51	386.304	239.024	-81.505	253.313	-102.266	1.849	224.182	-66.861	-13.357	313.321	-170.682	-117.113	118.821	-132.087	-12.74	97.3	-115.443	-66.108	64.711	-88.678
3511	17.55	58.727	1669.5	328.772	248.136	1370.786	245.249	-124.769	1375.689	350.585	84.799	1328.319	396.693	205.078	890.581	318.796	-88.064	881.84	331.403	45.662	934.948	142.786	196.565	438.774	377.14	69.017	410.406	388.996	149.984	103.697	221.426	60.064	107.274	258.345	93.68	45.913	128.552	186.287	46.881	310.202	77.283	44.034	360.042	133.001	51.825	409.545	-122.913	416.996	252.635	18.979	384.592	245.797	-83.231	253.156	-94.726	1.995	223.997	-60.173	-13.952	311.811	-165.206	-117.569	118.002	-123.028	-13.072	96.552	-106.987	-66.253	64.405	-79.311
3512	17.555	58.911	1668.755	328.561	248.964	1370.088	246.439	-125.434	1375.418	348.567	83.125	1328.015	396.879	204.655	889.432	319.377	-88.448	881.288	329.557	47.289	934.589	141.944	196.882	435.141	369.694	69.821	406.639	382.816	150.214	104.032	210.987	60.21	107.684	248.102	93.851	46.453	117.624	186.614	46.774	299.156	77.679	43.709	349.132	133.298	51.272	398.631	-120.379	414.869	258.466	19.46	383.376	252.612	-84.935	252.723	-86.911	2.195	223.595	-53.117	-14.397	309.738	-159.607	-117.988	116.876	-113.339	-13.38	95.509	-97.732	-66.412	63.928	-69.111
3513	17.56	58.961	1668.358	328.407	249.831	1369.71	247.819	-125.886	1375.024	346.819	82.439	1327.672	396.746	204.159	888.651	319.866	-88.899	880.868	327.736	48.792	934.475	141.14	197.237	432.48	362.548	70.381	403.491	376.265	150.5	104.405	200.515	60.403	108.154	237.804	94.037	47.051	106.649	186.955	46.687	288.059	78.075	43.428	338.161	133.625	50.757	387.658	-119.589	414.182	264.826	19.931	382.692	259.439	-86.595	251.988	-78.844	2.449	222.959	-45.703	-14.765	307.082	-153.909	-118.359	115.462	-102.972	-13.668	94.153	-87.71	-66.558	63.295	-58.064
3514	17.565	58.958	1668.249	328.235	251.943	1369.527	249.783	-126.241	1374.782	343.944	81.634	1327.66	396.653	203.66	888.221	320.222	-89.378	880.625	325.974	50.134	934.67	140.395	197.566	431.041	356.08	70.608	401.319	369.511	150.797	104.854	190.001	60.604	108.721	227.455	94.211	47.708	95.636	187.285	46.619	276.925	78.443	43.224	327.129	133.937	50.295	376.637	-120.382	414.367	271.141	20.363	382.632	266.263	-88.195	250.93	-70.517	2.787	222.096	-37.988	-15.055	303.811	-148.134	-118.67	113.755	-91.9	-13.877	92.522	-76.934	-66.64	62.515	-46.168
3515	17.57	58.826	1668.51	328.127	253.735	1369.717	251.851	-127.049	1375.066	341.322	80.705	1327.932	396.64	203.249	888.071	320.456	-89.846	880.584	324.314	51.304	935.19	139.727	197.834	430.654	350.209	70.63	400.127	362.105	151.145	105.359	179.466	60.83	109.264	217.034	94.39	48.443	84.598	187.604	46.593	265.771	78.823	43.02	316.068	134.256	49.913	365.582	-121.212	415.053	277.36	20.761	383.17	273.019	-88.2	249.011	-62.544	3.205	221.017	-29.984	-15.318	299.914	-142.266	-118.919	111.778	-80.094	-14.006	90.63	-65.415	-66.62	61.631	-33.425
3516	17.575	58.596	1669.016	327.995	255.669	1370.214	254.172	-127.773	1375.473	338.504	79.804	1328.45	396.669	202.986	888.154	320.555	-90.265	880.774	322.792	52.328	936.024	139.139	198.048	431.078	344.83	69.877	399.92	356.241	151.409	105.929	168.808	60.994	109.86	206.548	94.588	49.284	73.538	187.944	46.577	254.605	79.204	42.879	304.962	134.57	49.585	354.498	-123.392	416.84	282.674	21.141	384.195	279.688	-88.007	246.702	-54.333	3.707	219.71	-21.721	-15.559	295.347	-136.281	-119.079	109.536	-67.554	-14.062	88.498	-53.182	-66.481	60.692	-19.946
